<svg width="501" height="105" viewBox="0 0 501 105" fill="none" xmlns="http://www.w3.org/2000/svg">
<path d="M64.0002 91.52C64.0002 99.84 59.5202 104.32 51.2002 104.32H12.8002C5.37616 104.32 0.000156403 98.816 0.000156403 91.264V86.656C0.000156403 79.104 5.50416 73.6 13.0562 73.6H16.0002C16.7682 73.6 17.2802 73.088 17.2802 72.32V66.176C17.2802 58.624 22.7842 53.12 30.3362 53.12H37.1202C37.8882 53.12 38.4002 52.608 38.4002 51.84V37.12C38.4002 36.352 37.8882 35.84 37.1202 35.84H26.8802C26.1122 35.84 25.6002 36.352 25.6002 37.12V40.32C25.6002 48.64 21.1202 53.12 12.8002 53.12C4.48016 53.12 0.000156403 48.64 0.000156403 40.32C0.000156403 32 4.48016 27.52 12.8002 27.52H51.2002C58.7522 27.52 64.0002 33.024 64.0002 40.576V91.52ZM25.6002 88.96C25.6002 89.728 26.1122 90.24 26.8802 90.24H37.1202C37.8882 90.24 38.4002 89.728 38.4002 88.96V62.72C38.4002 61.952 37.8882 61.44 37.1202 61.44H26.8802C26.1122 61.44 25.6002 61.952 25.6002 62.72V88.96ZM84.4252 104.32C77.0012 104.32 71.6252 98.816 71.6252 91.264V40.576C71.6252 33.024 77.1292 27.52 84.6812 27.52H105.289C112.841 27.52 118.345 33.024 118.345 40.576V51.84C118.345 52.608 118.857 53.12 119.625 53.12H122.569C130.121 53.12 135.625 58.624 135.625 66.176V91.264C135.625 98.816 130.249 104.32 122.825 104.32C115.401 104.32 110.025 98.816 110.025 91.264V48C110.025 47.232 109.513 46.72 108.745 46.72H98.5052C97.7372 46.72 97.2252 47.232 97.2252 48V91.264C97.2252 98.816 91.8492 104.32 84.4252 104.32ZM156.05 104.32C147.73 104.32 143.25 99.84 143.25 91.52V57.6C143.25 49.28 147.73 44.8 156.05 44.8H158.61C159.378 44.8 159.89 44.288 159.89 43.52V40.32C159.89 32 164.37 27.52 172.69 27.52H194.45C202.77 27.52 207.25 32.128 207.25 40.32V60.8C207.25 69.12 203.538 73.6 196.626 73.6H170.13C169.362 73.6 168.85 74.112 168.85 74.88V94.72C168.85 95.488 169.362 96 170.13 96H180.498C181.266 96 181.778 95.488 181.778 94.72V90.24C181.778 83.072 186.77 79.232 194.578 79.232C202.898 79.232 207.25 83.584 207.25 92.032V93.312C207.25 100.48 202.258 104.32 194.578 104.32H156.05ZM168.85 53.12C168.85 53.888 169.362 54.4 170.13 54.4H184.594C185.362 54.4 185.874 53.888 185.874 53.12V37.12C185.874 36.352 185.362 35.84 184.594 35.84H170.13C169.362 35.84 168.85 36.352 168.85 37.12V53.12ZM227.675 104.32C220.251 104.32 214.875 98.816 214.875 91.264V40.576C214.875 33.024 220.379 27.52 227.931 27.52H279.259C286.811 27.52 292.315 33.024 292.315 40.576V51.84C292.315 52.608 292.827 53.12 293.595 53.12H296.539C304.091 53.12 309.595 58.624 309.595 66.176V91.264C309.595 98.816 304.219 104.32 296.795 104.32C289.371 104.32 283.995 98.816 283.995 91.264V41.856C283.995 41.088 283.483 40.576 282.715 40.576H259.035C258.267 40.576 257.755 41.088 257.755 41.856V51.84C257.755 52.608 258.267 53.12 259.035 53.12H261.979C269.531 53.12 275.035 58.624 275.035 66.176V91.264C275.035 98.816 269.659 104.32 262.235 104.32C254.811 104.32 249.435 98.816 249.435 91.264V48C249.435 47.232 248.923 46.72 248.155 46.72H241.755C240.987 46.72 240.475 47.232 240.475 48V91.264C240.475 98.816 235.099 104.32 227.675 104.32ZM330.05 104.32C321.73 104.32 317.25 99.84 317.25 91.52V40.32C317.25 32 321.73 27.52 330.05 27.52H351.17C359.49 27.52 363.97 32 363.97 40.32V42.88C363.97 43.648 364.482 44.16 365.25 44.16H368.45C376.77 44.16 381.25 48.64 381.25 56.96V91.52C381.25 99.84 376.642 104.32 368.45 104.32H330.05ZM342.85 83.84C342.85 84.608 343.362 85.12 344.13 85.12H354.37C355.138 85.12 355.65 84.608 355.65 83.84V48C355.65 47.232 355.138 46.72 354.37 46.72H344.13C343.362 46.72 342.85 47.232 342.85 48V83.84ZM400.395 25.6H413.067C421.387 25.6 425.867 21.12 425.867 12.8C425.867 4.48 421.387 0 413.067 0H400.395C392.075 0 387.595 4.48 387.595 12.8C387.595 21.12 392.075 25.6 400.395 25.6ZM388.875 74.624V40.576C388.875 33.024 394.251 27.52 401.675 27.52C409.099 27.52 414.475 33.024 414.475 40.576V77.44C414.475 78.208 414.987 78.72 415.755 78.72H418.955C427.147 78.72 431.883 83.2 431.883 91.392V91.52C431.883 99.712 427.403 104.32 419.211 104.32C411.659 104.32 406.155 98.816 406.155 91.264V88.96C406.155 88.192 405.643 87.68 404.875 87.68H401.931C394.379 87.68 388.875 82.176 388.875 74.624ZM501 91.52C501 99.84 496.52 104.32 488.2 104.32H449.8C442.376 104.32 437 98.816 437 91.264V86.656C437 79.104 442.504 73.6 450.056 73.6H453C453.768 73.6 454.28 73.088 454.28 72.32V66.176C454.28 58.624 459.784 53.12 467.336 53.12H474.12C474.888 53.12 475.4 52.608 475.4 51.84V37.12C475.4 36.352 474.888 35.84 474.12 35.84H463.88C463.112 35.84 462.6 36.352 462.6 37.12V40.32C462.6 48.64 458.12 53.12 449.8 53.12C441.48 53.12 437 48.64 437 40.32C437 32 441.48 27.52 449.8 27.52H488.2C495.752 27.52 501 33.024 501 40.576V91.52ZM462.6 88.96C462.6 89.728 463.112 90.24 463.88 90.24H474.12C474.888 90.24 475.4 89.728 475.4 88.96V62.72C475.4 61.952 474.888 61.44 474.12 61.44H463.88C463.112 61.44 462.6 61.952 462.6 62.72V88.96Z" fill="#FF3599"/>
</svg>
